<?xml version="1.0" encoding="UTF-8"?>
<svg version="1.1" xmlns="http://www.w3.org/2000/svg" width="75" height="66">
<path d="M0 0 C0.99 0 1.98 0 3 0 C3.495 2.475 3.495 2.475 4 5 C4.66 4.01 5.32 3.02 6 2 C6.99 2 7.98 2 9 2 C8.67 3.65 8.34 5.3 8 7 C10.475 6.505 10.475 6.505 13 6 C12.34 7.32 11.68 8.64 11 10 C10.34 10 9.68 10 9 10 C9 10.66 9 11.32 9 12 C10.65 12 12.3 12 14 12 C14 12.66 14 13.32 14 14 C12.35 14 10.7 14 9 14 C9.99 14.928125 9.99 14.928125 11 15.875 C13 18 13 18 13 20 C11.35 19.67 9.7 19.34 8 19 C8.495 21.475 8.495 21.475 9 24 C7.515 24.495 7.515 24.495 6 25 C6.15670166 25.7520874 6.31340332 26.5041748 6.47485352 27.27905273 C7.17667832 30.6640017 7.86970216 34.05069251 8.5625 37.4375 C8.9327832 39.21350586 8.9327832 39.21350586 9.31054688 41.02539062 C9.53935547 42.15009766 9.76816406 43.27480469 10.00390625 44.43359375 C10.21861572 45.47572021 10.4333252 46.51784668 10.65454102 47.59155273 C10.82554321 48.78373413 10.82554321 48.78373413 11 50 C10 51 10 51 7.31616211 51.11352539 C6.14835205 51.10828857 4.98054199 51.10305176 3.77734375 51.09765625 C2.51728516 51.09443359 1.25722656 51.09121094 -0.04101562 51.08789062 C-1.38151109 51.07953403 -2.72200588 51.07106907 -4.0625 51.0625 C-5.40689942 51.0574866 -6.7513006 51.05292342 -8.09570312 51.04882812 C-11.39717941 51.03699488 -14.69856803 51.02050971 -18 51 C-18 52.98 -18 54.96 -18 57 C-17.01 57 -16.02 57 -15 57 C-15 59.97 -15 62.94 -15 66 C-21.6 66 -28.2 66 -35 66 C-35 63.03 -35 60.06 -35 57 C-33.68 57 -32.36 57 -31 57 C-31 55.02 -31 53.04 -31 51 C-40.57 51 -50.14 51 -60 51 C-59.38037884 44.80378839 -58.84213704 39.60912719 -57.40625 33.71484375 C-57.09816406 32.44318359 -56.79007813 31.17152344 -56.47265625 29.86132812 C-56.31297363 29.21752197 -56.15329102 28.57371582 -55.98876953 27.91040039 C-55.49357065 25.91154818 -55.00976395 23.91017394 -54.52734375 21.90820312 C-52.13868378 12.13868378 -52.13868378 12.13868378 -51 11 C-49.65016252 10.87814857 -48.29425299 10.82233169 -46.93920898 10.79467773 C-46.07839218 10.77473251 -45.21757538 10.75478729 -44.33067322 10.73423767 C-42.92755638 10.70916893 -42.92755638 10.70916893 -41.49609375 10.68359375 C-40.54307877 10.66281265 -39.59006378 10.64203156 -38.60816956 10.62062073 C-35.5513559 10.55501823 -32.49445344 10.49619082 -29.4375 10.4375 C-27.37043337 10.39432494 -25.30337586 10.35071099 -23.23632812 10.30664062 C-18.15764405 10.19932599 -13.0788703 10.09808909 -8 10 C-8.66 9.67 -9.32 9.34 -10 9 C-10 8.01 -10 7.02 -10 6 C-7.525 6.495 -7.525 6.495 -5 7 C-5.495 4.525 -5.495 4.525 -6 2 C-4.0625 2.375 -4.0625 2.375 -2 3 C-1.505 3.99 -1.505 3.99 -1 5 C-0.67 3.35 -0.34 1.7 0 0 Z M1 8 C0.01 8.99 -0.98 9.98 -2 11 C-0.68 11.33 0.64 11.66 2 12 C2.33 13.32 2.66 14.64 3 16 C3.99 15.67 4.98 15.34 6 15 C5.81171228 12.55519921 5.81171228 12.55519921 5 10 C3.03241727 8.63979849 3.03241727 8.63979849 1 8 Z M-49 14 C-49.33 15.65 -49.66 17.3 -50 19 C-47.69 19 -45.38 19 -43 19 C-42.67 17.35 -42.34 15.7 -42 14 C-44.31 14 -46.62 14 -49 14 Z M-39 14 C-39 15.65 -39 17.3 -39 19 C-36.69 19 -34.38 19 -32 19 C-31.67 17.35 -31.34 15.7 -31 14 C-33.64 14 -36.28 14 -39 14 Z M-28 14 C-28 15.65 -28 17.3 -28 19 C-25.69 19 -23.38 19 -21 19 C-21 17.35 -21 15.7 -21 14 C-23.31 14 -25.62 14 -28 14 Z M-17 14 C-17 15.65 -17 17.3 -17 19 C-14.69 19 -12.38 19 -10 19 C-10 17.35 -10 15.7 -10 14 C-12.31 14 -14.62 14 -17 14 Z M-7 14 C-7 15.65 -7 17.3 -7 19 C-4.36 19 -1.72 19 1 19 C0.67 17.35 0.34 15.7 0 14 C-2.31 14 -4.62 14 -7 14 Z M-51 22 C-51.33 24.31 -51.66 26.62 -52 29 C-49.69 29 -47.38 29 -45 29 C-44.34 26.69 -43.68 24.38 -43 22 C-45.64 22 -48.28 22 -51 22 Z M-40 22 C-40.33 24.31 -40.66 26.62 -41 29 C-38.03 29 -35.06 29 -32 29 C-32 26.69 -32 24.38 -32 22 C-34.64 22 -37.28 22 -40 22 Z M-29 22 C-29 24.31 -29 26.62 -29 29 C-26.03 29 -23.06 29 -20 29 C-20 26.69 -20 24.38 -20 22 C-22.97 22 -25.94 22 -29 22 Z M-17 22 C-17 24.31 -17 26.62 -17 29 C-14.03 29 -11.06 29 -8 29 C-8.33 26.69 -8.66 24.38 -9 22 C-11.64 22 -14.28 22 -17 22 Z M-6 22 C-5.67 24.31 -5.34 26.62 -5 29 C-2.36 29 0.28 29 3 29 C2.72459296 25.18186553 2.72459296 25.18186553 1 22 C-1.33297433 21.95907063 -3.66705225 21.95758277 -6 22 Z M-54 33 C-54.04063832 34.66617115 -54.042721 36.33388095 -54 38 C-49.99745544 38.09181134 -49.99745544 38.09181134 -46 38 C-44.70366379 36.93354885 -44.70366379 36.93354885 -44.9375 34.4375 C-44.958125 33.633125 -44.97875 32.82875 -45 32 C-49.79970742 31.47166284 -49.79970742 31.47166284 -54 33 Z M-42 32 C-42 33.98 -42 35.96 -42 38 C-39.03 38 -36.06 38 -33 38 C-33 36.02 -33 34.04 -33 32 C-35.97 32 -38.94 32 -42 32 Z M-30 33 C-30 34.65 -30 36.3 -30 38 C-26.37 38 -22.74 38 -19 38 C-19.33 36.02 -19.66 34.04 -20 32 C-21.47906892 31.97310784 -22.95827483 31.95365379 -24.4375 31.9375 C-25.26121094 31.92589844 -26.08492187 31.91429688 -26.93359375 31.90234375 C-28.99163938 31.76732652 -28.99163938 31.76732652 -30 33 Z M-17 32 C-16.67 33.98 -16.34 35.96 -16 38 C-13.03 38 -10.06 38 -7 38 C-7.33 36.02 -7.66 34.04 -8 32 C-10.97 32 -13.94 32 -17 32 Z M-5 32 C-4.67 33.98 -4.34 35.96 -4 38 C-1.03 38 1.94 38 5 38 C4.67 36.02 4.34 34.04 4 32 C1.03 32 -1.94 32 -5 32 Z M-55 41 C-55.66 43.31 -56.32 45.62 -57 48 C-53.7 48 -50.4 48 -47 48 C-46.67 45.69 -46.34 43.38 -46 41 C-48.97 41 -51.94 41 -55 41 Z M-43 41 C-43.33 43.31 -43.66 45.62 -44 48 C-40.7 48 -37.4 48 -34 48 C-33.67 45.69 -33.34 43.38 -33 41 C-36.3 41 -39.6 41 -43 41 Z M-30 42 C-30.04080783 43.99958364 -30.04254356 46.00045254 -30 48 C-26.37 48 -22.74 48 -19 48 C-19 45.69 -19 43.38 -19 41 C-20.64574566 40.97311849 -22.29161413 40.95365877 -23.9375 40.9375 C-25.31228516 40.92009766 -25.31228516 40.92009766 -26.71484375 40.90234375 C-28.96593327 40.74050951 -28.96593327 40.74050951 -30 42 Z M-3 41 C-3.04254356 42.99954746 -3.04080783 45.00041636 -3 47 C-1.99163938 48.23267348 -1.99163938 48.23267348 0.06640625 48.09765625 C0.89011719 48.08605469 1.71382812 48.07445312 2.5625 48.0625 C3.80193359 48.04896484 3.80193359 48.04896484 5.06640625 48.03515625 C6.02353516 48.01775391 6.02353516 48.01775391 7 48 C6.65772428 45.02934491 6.65772428 45.02934491 6 42 C3.04335481 40.5216774 0.25770263 40.93967217 -3 41 Z M-16 42 C-16 43.98 -16 45.96 -16 48 C-12.7 48 -9.4 48 -6 48 C-6 46.02 -6 44.04 -6 42 C-9.3 42 -12.6 42 -16 42 Z M-28 51 C-28 52.98 -28 54.96 -28 57 C-26.02 57 -24.04 57 -22 57 C-22 55.02 -22 53.04 -22 51 C-23.98 51 -25.96 51 -28 51 Z M-32 60 C-32 60.99 -32 61.98 -32 63 C-27.38 63 -22.76 63 -18 63 C-18 62.01 -18 61.02 -18 60 C-22.62 60 -27.24 60 -32 60 Z " fill="#FBB039" transform="translate(60,0)"/>
</svg>
