<svg version="1.2" xmlns="http://www.w3.org/2000/svg" viewBox="0 0 80 15" width="80" height="15">
	<title>New Project</title>
	<style>
		.s0 { opacity: .2;fill: #000000 } 
	</style>
	<path id="Shape 1" class="s0" d="m8.5 13c-3 0-5.5-2.5-5.5-5.5 0-3 2.5-5.5 5.5-5.5 3 0 5.5 2.5 5.5 5.5 0 3-2.5 5.5-5.5 5.5z"/>
	<path id="Shape 1 copy" class="s0" d="m42.5 13c-3 0-5.5-2.5-5.5-5.5 0-3 2.5-5.5 5.5-5.5 3 0 5.5 2.5 5.5 5.5 0 3-2.5 5.5-5.5 5.5z"/>
	<path id="Shape 1 copy 2" class="s0" d="m72.5 13c-3 0-5.5-2.5-5.5-5.5 0-3 2.5-5.5 5.5-5.5 3 0 5.5 2.5 5.5 5.5 0 3-2.5 5.5-5.5 5.5z"/>
</svg>