<?xml version="1.0" encoding="UTF-8"?>
<svg version="1.1" xmlns="http://www.w3.org/2000/svg" width="78" height="47">
<path d="M0 0 C4.39548491 -0.14536813 8.79035087 -0.23409948 13.1875 -0.3125 C14.43337891 -0.35439453 15.67925781 -0.39628906 16.96289062 -0.43945312 C25.97729792 -0.56028968 25.97729792 -0.56028968 28.94384766 1.06494141 C32.81151504 4.85467091 33.17932708 8.1121512 33.25 13.3125 C33.27578125 14.44300781 33.3015625 15.57351562 33.328125 16.73828125 C32.96383329 20.35951429 32.21922709 22.14167577 30 25 C28.16796875 26.29296875 28.16796875 26.29296875 26.1875 27.1875 C25.54167969 27.49042969 24.89585938 27.79335938 24.23046875 28.10546875 C21.523348 29.19116166 18.77425583 30.10163185 16 31 C17.14339844 31.06058594 18.28679688 31.12117188 19.46484375 31.18359375 C20.95574305 31.26798428 22.44662775 31.35263302 23.9375 31.4375 C24.69224609 31.47681641 25.44699219 31.51613281 26.22460938 31.55664062 C31.88671875 31.88671875 31.88671875 31.88671875 33 33 C33.09851171 34.83115883 33.12972629 36.66619933 33.125 38.5 C33.12886719 40.00046875 33.12886719 40.00046875 33.1328125 41.53125 C33 44 33 44 32 45 C29.47905924 45.08847743 26.98569107 45.11527301 24.46484375 45.09765625 C23.33496788 45.09553383 23.33496788 45.09553383 22.18226624 45.09336853 C19.7673044 45.08775376 17.35243399 45.07519883 14.9375 45.0625 C13.30403779 45.0574869 11.67057414 45.05292366 10.03710938 45.04882812 C6.02470415 45.03777954 2.01236759 45.02050506 -2 45 C-2.0875127 41.77100574 -2.14056146 38.54231884 -2.1875 35.3125 C-2.21263672 34.40048828 -2.23777344 33.48847656 -2.26367188 32.54882812 C-2.35903825 23.80691002 -2.35903825 23.80691002 1 20 C3.05078125 18.70703125 3.05078125 18.70703125 5.3125 17.8125 C6.42044922 17.35810547 6.42044922 17.35810547 7.55078125 16.89453125 C10.34936734 15.87240013 13.16874099 14.92741096 16 14 C14.92878906 13.93941406 13.85757813 13.87882813 12.75390625 13.81640625 C11.35675609 13.73201463 9.95962143 13.64736594 8.5625 13.5625 C7.85544922 13.52318359 7.14839844 13.48386719 6.41992188 13.44335938 C1.11328125 13.11328125 1.11328125 13.11328125 0 12 C-0.07244053 9.98035801 -0.08377188 7.95832876 -0.0625 5.9375 C-0.05347656 4.83277344 -0.04445312 3.72804688 -0.03515625 2.58984375 C-0.02355469 1.73519531 -0.01195312 0.88054687 0 0 Z M2 2 C2 4.97 2 7.94 2 11 C7.28 11.33 12.56 11.66 18 12 C18 13.32 18 14.64 18 16 C17.02417969 16.32613281 16.04835938 16.65226562 15.04296875 16.98828125 C13.75765489 17.42922834 12.47250722 17.87066008 11.1875 18.3125 C10.22360352 18.63250977 10.22360352 18.63250977 9.24023438 18.95898438 C4.50735562 20.59640186 4.50735562 20.59640186 1 24 C-0.25497056 27.76491167 -0.10661648 31.27206475 -0.0625 35.1875 C-0.041875 37.765625 -0.02125 40.34375 0 43 C10.23 43 20.46 43 31 43 C31 40.36 31 37.72 31 35 C30.01592689 33.79504091 30.01592689 33.79504091 28.14233398 33.88647461 C26.95619507 33.89432983 26.95619507 33.89432983 25.74609375 33.90234375 C24.46508789 33.90717773 24.46508789 33.90717773 23.15820312 33.91210938 C22.26037109 33.92048828 21.36253906 33.92886719 20.4375 33.9375 C19.08495117 33.94426758 19.08495117 33.94426758 17.70507812 33.95117188 C15.46998686 33.96299775 13.23502563 33.9794778 11 34 C11.29541016 32.09985352 11.29541016 32.09985352 12 30 C14.48219442 28.78852325 16.78224878 27.83146906 19.375 26.9375 C25.44823846 25.09052117 25.44823846 25.09052117 30 21 C31.39591066 15.55688527 31.59982833 10.07585532 29 5 C25.89253755 2.07315336 23.79407481 1.63676542 19.578125 1.70703125 C18.55332031 1.71669922 17.52851562 1.72636719 16.47265625 1.73632812 C14.87744141 1.7740332 14.87744141 1.7740332 13.25 1.8125 C12.17105469 1.82603516 11.09210937 1.83957031 9.98046875 1.85351562 C7.3198058 1.88883416 4.66015704 1.93815801 2 2 Z " fill="#B6B6B6" transform="translate(45,1)"/>
<path d="M0 0 C0.83337891 -0.01611328 1.66675781 -0.03222656 2.52539062 -0.04882812 C7.59095422 -0.05283252 11.28336946 0.31899926 15.5625 3.3125 C18.990519 7.64628521 20.07206903 10.52738216 20.09375 16.03125 C20.10148437 17.92423828 20.10148437 17.92423828 20.109375 19.85546875 C20.09390625 21.16128906 20.0784375 22.46710937 20.0625 23.8125 C20.07796875 25.11832031 20.0934375 26.42414062 20.109375 27.76953125 C20.10421875 29.03152344 20.0990625 30.29351563 20.09375 31.59375 C20.08923828 32.73908203 20.08472656 33.88441406 20.08007812 35.06445312 C19.44774804 39.03262269 18.06469782 41.19892329 15.5625 44.3125 C10.25694526 47.38413695 5.58919711 47.80536386 -0.375 47.75 C-1.13490234 47.76998047 -1.89480469 47.78996094 -2.67773438 47.81054688 C-8.28814274 47.80575575 -12.81468489 46.58794802 -17.4375 43.3125 C-19.81934782 39.73972826 -19.77650573 37.10919769 -19.80859375 32.9765625 C-19.81762222 32.26019623 -19.8266507 31.54382996 -19.83595276 30.80575562 C-19.85044861 29.29111912 -19.85934036 27.7764201 -19.86303711 26.26171875 C-19.87492515 23.95204317 -19.92410065 21.64504848 -19.97460938 19.3359375 C-19.98407534 17.86199217 -19.99130955 16.38803047 -19.99609375 14.9140625 C-20.01562607 14.22744537 -20.03515839 13.54082825 -20.05528259 12.83340454 C-20.01917446 8.96800969 -19.53942231 7.43561892 -17.04150391 4.41821289 C-11.58948462 0.00946863 -6.76247834 -0.02602955 0 0 Z M-16.08618164 7.01196289 C-18.68733057 11.44026033 -17.91593736 16.71990919 -17.88354492 21.72973633 C-17.87503896 23.74078902 -17.90380173 25.74899366 -17.93554688 27.75976562 C-17.93490234 29.03400391 -17.93425781 30.30824219 -17.93359375 31.62109375 C-17.93544678 32.78439209 -17.9372998 33.94769043 -17.93920898 35.14624023 C-17.33463254 38.96169129 -16.13858725 40.59732066 -13.4375 43.3125 C-6.10789359 46.58743052 3.55148454 46.53657025 11.1875 44.25 C14.65105946 42.26166031 15.56824101 41.15747428 16.98681641 37.52172852 C18.1611604 33.01509629 17.99082383 28.43982354 17.9375 23.8125 C17.94910156 22.80574219 17.96070313 21.79898437 17.97265625 20.76171875 C17.94949665 14.87146154 17.54282724 10.4502799 14.5625 5.3125 C6.07147089 0.34604901 -8.77962587 -0.51964302 -16.08618164 7.01196289 Z " fill="#B6B6B6" transform="translate(19.4375,-0.3125)"/>
<path d="M0 0 C0 6.93 0 13.86 0 21 C-4.52881469 23.26440734 -6.18528124 23.090125 -11 22 C-12.16171778 19.67656444 -12.12903969 18.30366684 -12.1328125 15.71875 C-12.13410156 14.87699219 -12.13539062 14.03523438 -12.13671875 13.16796875 C-12.13285156 12.28753906 -12.12898437 11.40710937 -12.125 10.5 C-12.12886719 9.61957031 -12.13273438 8.73914062 -12.13671875 7.83203125 C-12.13542969 6.99027344 -12.13414063 6.14851563 -12.1328125 5.28125 C-12.13168457 4.50845703 -12.13055664 3.73566406 -12.12939453 2.93945312 C-12 1 -12 1 -11 -1 C-6.79681823 -2.93993005 -4.95011036 -1.41431725 0 0 Z M-9 1 C-9 7.27 -9 13.54 -9 20 C-6.69 20 -4.38 20 -2 20 C-2 13.73 -2 7.46 -2 1 C-4.31 1 -6.62 1 -9 1 Z " fill="#B7B7B7" transform="translate(25,13)"/>
</svg>
