<?xml version="1.0" encoding="UTF-8"?>
<svg version="1.1" xmlns="http://www.w3.org/2000/svg" width="78" height="47">
<path d="M0 0 C4.24977046 -0.11611395 8.49913337 -0.18722349 12.75 -0.25 C13.9565625 -0.28351562 15.163125 -0.31703125 16.40625 -0.3515625 C18.14648438 -0.37089844 18.14648438 -0.37089844 19.921875 -0.390625 C20.99018555 -0.41157227 22.05849609 -0.43251953 23.15917969 -0.45410156 C26.68638554 0.10971787 27.79946143 1.25283896 30 4 C31.30838689 6.61677378 31.09705508 8.58201522 31.0625 11.5 C31.05347656 12.4796875 31.04445313 13.459375 31.03515625 14.46875 C31.02355469 15.3040625 31.01195313 16.139375 31 17 C30.77676764 19.24338768 30.77676764 19.24338768 32.97265625 21.1875 C35.50654656 24.70272355 35.50685505 26.70923413 35.4375 31 C35.43621094 32.19625 35.43492188 33.3925 35.43359375 34.625 C34.96703533 38.25658985 34.25386526 40.13794887 32 43 C28.54227231 45.28661791 25.56342698 45.23239479 21.484375 45.1953125 C19.60878906 45.18564453 19.60878906 45.18564453 17.6953125 45.17578125 C16.39335938 45.15902344 15.09140625 45.14226563 13.75 45.125 C12.43257812 45.11597656 11.11515625 45.10695312 9.7578125 45.09765625 C6.50502538 45.07408533 3.25260411 45.04118022 0 45 C-0.02686553 43.02090602 -0.04633375 41.04171029 -0.0625 39.0625 C-0.07410156 37.96035156 -0.08570313 36.85820313 -0.09765625 35.72265625 C0 33 0 33 1 32 C2.34267413 31.91368126 3.68974322 31.89293527 5.03515625 31.90234375 C5.84404297 31.90556641 6.65292969 31.90878906 7.48632812 31.91210938 C8.33646484 31.92048828 9.18660156 31.92886719 10.0625 31.9375 C10.91650391 31.94201172 11.77050781 31.94652344 12.65039062 31.95117188 C14.76695663 31.96299627 16.88348685 31.98093231 19 32 C19 31.01 19 30.02 19 29 C17.60974609 29.01740234 17.60974609 29.01740234 16.19140625 29.03515625 C14.99386719 29.04417969 13.79632813 29.05320312 12.5625 29.0625 C11.36753906 29.07410156 10.17257813 29.08570312 8.94140625 29.09765625 C6 29 6 29 5 28 C4.92755947 25.98035801 4.91622812 23.95832876 4.9375 21.9375 C4.94652344 20.83277344 4.95554687 19.72804688 4.96484375 18.58984375 C4.97644531 17.73519531 4.98804688 16.88054688 5 16 C8.3 15.67 11.6 15.34 15 15 C15 14.67 15 14.34 15 14 C14.00097656 13.93941406 13.00195312 13.87882813 11.97265625 13.81640625 C10.68230469 13.73261719 9.39195313 13.64882812 8.0625 13.5625 C6.13083984 13.44068359 6.13083984 13.44068359 4.16015625 13.31640625 C1 13 1 13 0 12 C-0.07244053 9.98035801 -0.08377188 7.95832876 -0.0625 5.9375 C-0.05347656 4.83277344 -0.04445312 3.72804688 -0.03515625 2.58984375 C-0.02355469 1.73519531 -0.01195312 0.88054687 0 0 Z M2 2 C2 4.97 2 7.94 2 11 C6.95 11.33 11.9 11.66 17 12 C17 13.65 17 15.3 17 17 C13.7 17.33 10.4 17.66 7 18 C7 20.64 7 23.28 7 26 C8.26457031 26.09087891 8.26457031 26.09087891 9.5546875 26.18359375 C11.19824219 26.30927734 11.19824219 26.30927734 12.875 26.4375 C14.51082031 26.55931641 14.51082031 26.55931641 16.1796875 26.68359375 C19 27 19 27 21 28 C21 29.98 21 31.96 21 34 C14.73 34 8.46 34 2 34 C2 36.97 2 39.94 2 43 C6.06225821 43.11638426 10.1240863 43.18731373 14.1875 43.25 C15.91323242 43.30027344 15.91323242 43.30027344 17.67382812 43.3515625 C18.78564453 43.36445312 19.89746094 43.37734375 21.04296875 43.390625 C22.57473755 43.4220459 22.57473755 43.4220459 24.13745117 43.45410156 C27.77130822 42.87764322 29.40586556 41.56203669 32 39 C33.01102038 35.96693887 33.1982535 33.74059761 33.25 30.5625 C33.27578125 29.61503906 33.3015625 28.66757812 33.328125 27.69140625 C32.94601801 24.55721918 32.16189889 23.26411633 30 21 C27.41501488 19.73152315 27.41501488 19.73152315 25 19 C25.66 18.484375 26.32 17.96875 27 17.4375 C29.29999545 15.07481544 29.29999545 15.07481544 29.4375 11.5625 C28.98239299 7.85662863 28.24929057 5.94137997 26 3 C23.49502996 1.74751498 21.79146726 1.88625594 18.9921875 1.90234375 C18.00605469 1.90556641 17.01992188 1.90878906 16.00390625 1.91210938 C14.45509766 1.92467773 14.45509766 1.92467773 12.875 1.9375 C11.83472656 1.94201172 10.79445313 1.94652344 9.72265625 1.95117188 C7.14838038 1.96298048 4.57421854 1.97944925 2 2 Z " fill="#B6B6B6" transform="translate(43,1)"/>
<path d="M0 0 C0.83337891 -0.01611328 1.66675781 -0.03222656 2.52539062 -0.04882812 C7.59095422 -0.05283252 11.28336946 0.31899926 15.5625 3.3125 C18.990519 7.64628521 20.07206903 10.52738216 20.09375 16.03125 C20.10148437 17.92423828 20.10148437 17.92423828 20.109375 19.85546875 C20.09390625 21.16128906 20.0784375 22.46710937 20.0625 23.8125 C20.07796875 25.11832031 20.0934375 26.42414062 20.109375 27.76953125 C20.10421875 29.03152344 20.0990625 30.29351563 20.09375 31.59375 C20.08923828 32.73908203 20.08472656 33.88441406 20.08007812 35.06445312 C19.44774804 39.03262269 18.06469782 41.19892329 15.5625 44.3125 C10.25694526 47.38413695 5.58919711 47.80536386 -0.375 47.75 C-1.13490234 47.76998047 -1.89480469 47.78996094 -2.67773438 47.81054688 C-8.28814274 47.80575575 -12.81468489 46.58794802 -17.4375 43.3125 C-19.81934782 39.73972826 -19.77650573 37.10919769 -19.80859375 32.9765625 C-19.81762222 32.26019623 -19.8266507 31.54382996 -19.83595276 30.80575562 C-19.85044861 29.29111912 -19.85934036 27.7764201 -19.86303711 26.26171875 C-19.87492515 23.95204317 -19.92410065 21.64504848 -19.97460938 19.3359375 C-19.98407534 17.86199217 -19.99130955 16.38803047 -19.99609375 14.9140625 C-20.01562607 14.22744537 -20.03515839 13.54082825 -20.05528259 12.83340454 C-20.01917446 8.96800969 -19.53942231 7.43561892 -17.04150391 4.41821289 C-11.58948462 0.00946863 -6.76247834 -0.02602955 0 0 Z M-16.08618164 7.01196289 C-18.68733057 11.44026033 -17.91593736 16.71990919 -17.88354492 21.72973633 C-17.87503896 23.74078902 -17.90380173 25.74899366 -17.93554688 27.75976562 C-17.93490234 29.03400391 -17.93425781 30.30824219 -17.93359375 31.62109375 C-17.93544678 32.78439209 -17.9372998 33.94769043 -17.93920898 35.14624023 C-17.33463254 38.96169129 -16.13858725 40.59732066 -13.4375 43.3125 C-6.10789359 46.58743052 3.55148454 46.53657025 11.1875 44.25 C14.65105946 42.26166031 15.56824101 41.15747428 16.98681641 37.52172852 C18.1611604 33.01509629 17.99082383 28.43982354 17.9375 23.8125 C17.94910156 22.80574219 17.96070313 21.79898437 17.97265625 20.76171875 C17.94949665 14.87146154 17.54282724 10.4502799 14.5625 5.3125 C6.07147089 0.34604901 -8.77962587 -0.51964302 -16.08618164 7.01196289 Z " fill="#B6B6B6" transform="translate(19.4375,-0.3125)"/>
<path d="M0 0 C0 6.93 0 13.86 0 21 C-4.52881469 23.26440734 -6.18528124 23.090125 -11 22 C-12.16171778 19.67656444 -12.12903969 18.30366684 -12.1328125 15.71875 C-12.13410156 14.87699219 -12.13539062 14.03523438 -12.13671875 13.16796875 C-12.13285156 12.28753906 -12.12898437 11.40710937 -12.125 10.5 C-12.12886719 9.61957031 -12.13273438 8.73914062 -12.13671875 7.83203125 C-12.13542969 6.99027344 -12.13414063 6.14851563 -12.1328125 5.28125 C-12.13168457 4.50845703 -12.13055664 3.73566406 -12.12939453 2.93945312 C-12 1 -12 1 -11 -1 C-6.79681823 -2.93993005 -4.95011036 -1.41431725 0 0 Z M-9 1 C-9 7.27 -9 13.54 -9 20 C-6.69 20 -4.38 20 -2 20 C-2 13.73 -2 7.46 -2 1 C-4.31 1 -6.62 1 -9 1 Z " fill="#B6B6B6" transform="translate(25,13)"/>
</svg>
