<?xml version="1.0" encoding="UTF-8"?>
<svg version="1.1" xmlns="http://www.w3.org/2000/svg" width="77" height="47">
<path d="M0 0 C0.9583374 0.00523682 1.9166748 0.01047363 2.90405273 0.01586914 C3.83548096 0.0183667 4.76690918 0.02086426 5.7265625 0.0234375 C7.51404907 0.03709351 7.51404907 0.03709351 9.33764648 0.05102539 C13.11202148 0.07165039 16.88639648 0.09227539 20.77514648 0.11352539 C20.77514648 10.34352539 20.77514648 20.57352539 20.77514648 31.11352539 C22.75514648 31.11352539 24.73514648 31.11352539 26.77514648 31.11352539 C27.43514648 31.44352539 28.09514648 31.77352539 28.77514648 32.11352539 C28.77514648 36.40352539 28.77514648 40.69352539 28.77514648 45.11352539 C24.23616943 45.13817931 19.69723105 45.15636328 15.15820312 45.16845703 C13.61294883 45.17349679 12.06769932 45.18032859 10.52246094 45.18896484 C8.3058962 45.20104615 6.0893943 45.20675712 3.87280273 45.21118164 C2.83060326 45.21892357 2.83060326 45.21892357 1.76734924 45.2268219 C0.10285319 45.22701816 -1.5615085 45.17541668 -3.22485352 45.11352539 C-4.96589705 43.37248186 -4.43796624 41.03988518 -4.47485352 38.67602539 C-4.50063477 37.68731445 -4.52641602 36.69860352 -4.55297852 35.67993164 C-4.39055664 34.40956055 -4.39055664 34.40956055 -4.22485352 33.11352539 C-1.22485352 31.11352539 -1.22485352 31.11352539 4.77514648 31.11352539 C4.77514648 25.17352539 4.77514648 19.23352539 4.77514648 13.11352539 C2.46514648 13.11352539 0.15514648 13.11352539 -2.22485352 13.11352539 C-3.22485352 12.11352539 -3.22485352 12.11352539 -3.35766602 9.64477539 C-3.35508789 8.64446289 -3.35250977 7.64415039 -3.34985352 6.61352539 C-3.35243164 5.61321289 -3.35500977 4.61290039 -3.35766602 3.58227539 C-3.18722989 0.4141686 -3.15702184 0.16109022 0 0 Z M-0.22485352 2.11352539 C-0.22485352 5.08352539 -0.22485352 8.05352539 -0.22485352 11.11352539 C2.08514648 11.11352539 4.39514648 11.11352539 6.77514648 11.11352539 C6.77514648 18.70352539 6.77514648 26.29352539 6.77514648 34.11352539 C3.80514648 34.11352539 0.83514648 34.11352539 -2.22485352 34.11352539 C-2.22485352 37.08352539 -2.22485352 40.05352539 -2.22485352 43.11352539 C7.34514648 43.11352539 16.91514648 43.11352539 26.77514648 43.11352539 C26.77514648 40.14352539 26.77514648 37.17352539 26.77514648 34.11352539 C24.13514648 34.11352539 21.49514648 34.11352539 18.77514648 34.11352539 C18.77514648 23.55352539 18.77514648 12.99352539 18.77514648 2.11352539 C12.50514648 2.11352539 6.23514648 2.11352539 -0.22485352 2.11352539 Z " fill="#FFFFFF" transform="translate(47.224853515625,0.886474609375)"/>
<path d="M0 0 C0.83337891 -0.01611328 1.66675781 -0.03222656 2.52539062 -0.04882812 C7.59095422 -0.05283252 11.28336946 0.31899926 15.5625 3.3125 C18.990519 7.64628521 20.07206903 10.52738216 20.09375 16.03125 C20.10148437 17.92423828 20.10148437 17.92423828 20.109375 19.85546875 C20.09390625 21.16128906 20.0784375 22.46710937 20.0625 23.8125 C20.07796875 25.11832031 20.0934375 26.42414062 20.109375 27.76953125 C20.10421875 29.03152344 20.0990625 30.29351563 20.09375 31.59375 C20.08923828 32.73908203 20.08472656 33.88441406 20.08007812 35.06445312 C19.44774804 39.03262269 18.06469782 41.19892329 15.5625 44.3125 C10.25694526 47.38413695 5.58919711 47.80536386 -0.375 47.75 C-1.13490234 47.76998047 -1.89480469 47.78996094 -2.67773438 47.81054688 C-8.28814274 47.80575575 -12.81468489 46.58794802 -17.4375 43.3125 C-19.81934782 39.73972826 -19.77650573 37.10919769 -19.80859375 32.9765625 C-19.81762222 32.26019623 -19.8266507 31.54382996 -19.83595276 30.80575562 C-19.85044861 29.29111912 -19.85934036 27.7764201 -19.86303711 26.26171875 C-19.87492515 23.95204317 -19.92410065 21.64504848 -19.97460938 19.3359375 C-19.98407534 17.86199217 -19.99130955 16.38803047 -19.99609375 14.9140625 C-20.01562607 14.22744537 -20.03515839 13.54082825 -20.05528259 12.83340454 C-20.01917446 8.96800969 -19.53942231 7.43561892 -17.04150391 4.41821289 C-11.58948462 0.00946863 -6.76247834 -0.02602955 0 0 Z M-16.08618164 7.01196289 C-18.68733057 11.44026033 -17.91593736 16.71990919 -17.88354492 21.72973633 C-17.87503896 23.74078902 -17.90380173 25.74899366 -17.93554688 27.75976562 C-17.93490234 29.03400391 -17.93425781 30.30824219 -17.93359375 31.62109375 C-17.93544678 32.78439209 -17.9372998 33.94769043 -17.93920898 35.14624023 C-17.33463254 38.96169129 -16.13858725 40.59732066 -13.4375 43.3125 C-6.10789359 46.58743052 3.55148454 46.53657025 11.1875 44.25 C14.65105946 42.26166031 15.56824101 41.15747428 16.98681641 37.52172852 C18.1611604 33.01509629 17.99082383 28.43982354 17.9375 23.8125 C17.94910156 22.80574219 17.96070313 21.79898437 17.97265625 20.76171875 C17.94949665 14.87146154 17.54282724 10.4502799 14.5625 5.3125 C6.07147089 0.34604901 -8.77962587 -0.51964302 -16.08618164 7.01196289 Z " fill="#FFFFFF" transform="translate(19.4375,-0.3125)"/>
<path d="M0 0 C0 6.93 0 13.86 0 21 C-4.52881469 23.26440734 -6.18528124 23.090125 -11 22 C-12.16171778 19.67656444 -12.12903969 18.30366684 -12.1328125 15.71875 C-12.13410156 14.87699219 -12.13539062 14.03523438 -12.13671875 13.16796875 C-12.13285156 12.28753906 -12.12898437 11.40710937 -12.125 10.5 C-12.12886719 9.61957031 -12.13273438 8.73914062 -12.13671875 7.83203125 C-12.13542969 6.99027344 -12.13414063 6.14851563 -12.1328125 5.28125 C-12.13168457 4.50845703 -12.13055664 3.73566406 -12.12939453 2.93945312 C-12 1 -12 1 -11 -1 C-6.79681823 -2.93993005 -4.95011036 -1.41431725 0 0 Z M-9 1 C-9 7.27 -9 13.54 -9 20 C-6.69 20 -4.38 20 -2 20 C-2 13.73 -2 7.46 -2 1 C-4.31 1 -6.62 1 -9 1 Z " fill="#B7B7B7" transform="translate(25,13)"/>
</svg>
